ffmpeg started on 2016-12-03 at 11:29:28
Report written to "Output/x264/results/ffmpeg/old_town_cross_2160p50placebo9000k.log"
Command line:
Tools/ffmpeg/ffmpeg -benchmark -y -i Input/y4m/old_town_cross_2160p50.y4m -c:v libx264 -preset placebo -b:v 9000k -an Output/x264/encoded/old_town_cross_2160p50placebo9000k.mkv
ffmpeg version N-82227-gdb23fde Copyright (c) 2000-2016 the FFmpeg developers
  built with gcc 5.4.0 (Ubuntu 5.4.0-6ubuntu1~16.04.2) 20160609
  configuration: --prefix=/home/jaroslav/ffmpeg_build --pkg-config-flags=--static --extra-cflags=-I/home/jaroslav/ffmpeg_build/include --extra-ldflags=-L/home/jaroslav/ffmpeg_build/lib --bindir=/home/jaroslav/bin --enable-gpl --enable-libass --enable-libfdk-aac --enable-libfreetype --enable-libmp3lame --enable-libopus --enable-libtheora --enable-libvorbis --enable-libvpx --enable-libx264 --enable-libx265 --enable-nvenc --enable-libmfx --enable-libxvid --enable-libgsm --enable-libopencore-amrnb --enable-version3 --enable-nonfree
  libavutil      55. 35.100 / 55. 35.100
  libavcodec     57. 66.101 / 57. 66.101
  libavformat    57. 57.100 / 57. 57.100
  libavdevice    57.  2.100 / 57.  2.100
  libavfilter     6. 66.100 /  6. 66.100
  libswscale      4.  3.100 /  4.  3.100
  libswresample   2.  4.100 /  2.  4.100
  libpostproc    54.  2.100 / 54.  2.100
Input #0, yuv4mpegpipe, from 'Input/y4m/old_town_cross_2160p50.y4m':
  Duration: 00:00:10.00, start: 0.000000, bitrate: 4976642 kb/s
    Stream #0:0: Video: rawvideo (I420 / 0x30323449), yuv420p(progressive), 3840x2160, SAR 1:1 DAR 16:9, 50 fps, 50 tbr, 50 tbn, 50 tbc
[libx264 @ 0x3255120] using SAR=1/1
[libx264 @ 0x3255120] DPB size (16 frames, 518400 mbs) > level limit (5 frames, 184320 mbs)
[libx264 @ 0x3255120] using cpu capabilities: MMX2 SSE2Fast SSSE3 SSE4.2 AVX FMA3 AVX2 LZCNT BMI2
[libx264 @ 0x3255120] profile High, level 5.2
[libx264 @ 0x3255120] 264 - core 148 - H.264/MPEG-4 AVC codec - Copyleft 2003-2016 - http://www.videolan.org/x264.html - options: cabac=1 ref=16 deblock=1:0:0 analyse=0x3:0x133 me=tesa subme=11 psy=1 psy_rd=1.00:0.00 mixed_ref=1 me_range=24 chroma_me=1 trellis=2 8x8dct=1 cqm=0 deadzone=21,11 fast_pskip=0 chroma_qp_offset=-2 threads=6 lookahead_threads=1 sliced_threads=0 nr=0 decimate=1 interlaced=0 bluray_compat=0 constrained_intra=0 bframes=16 b_pyramid=2 b_adapt=2 b_bias=0 direct=3 weightb=1 open_gop=0 weightp=2 keyint=250 keyint_min=25 scenecut=40 intra_refresh=0 rc_lookahead=60 rc=abr mbtree=1 bitrate=9000 ratetol=1.0 qcomp=0.60 qpmin=0 qpmax=69 qpstep=4 ip_ratio=1.40 aq=1:1.00
Output #0, matroska, to 'Output/x264/encoded/old_town_cross_2160p50placebo9000k.mkv':
  Metadata:
    encoder         : Lavf57.57.100
    Stream #0:0: Video: h264 (libx264) (H264 / 0x34363248), yuv420p, 3840x2160 [SAR 1:1 DAR 16:9], q=-1--1, 9000 kb/s, 50 fps, 1k tbn, 50 tbc
    Metadata:
      encoder         : Lavc57.66.101 libx264
    Side data:
      cpb: bitrate max/min/avg: 0/0/9000000 buffer size: 0 vbv_delay: -1
Stream mapping:
  Stream #0:0 -> #0:0 (rawvideo (native) -> h264 (libx264))
Press [q] to stop, [?] for help
frame=   58 fps=0.0 q=0.0 size=       0kB time=00:00:00.00 bitrate=N/A speed=   0x    frame=   84 fps=3.3 q=0.0 size=       0kB time=00:00:00.00 bitrate=N/A speed=   0x    frame=   89 fps=3.2 q=35.0 size=       1kB time=-00:00:00.01 bitrate=N/A speed=N/A    frame=   90 fps=2.7 q=35.0 size=       1kB time=00:00:00.00 bitrate=5888.0kbits/s speed=2.97e-05x    frame=   91 fps=2.4 q=35.0 size=       1kB time=00:00:00.02 bitrate= 280.4kbits/s speed=0.000547x    frame=   92 fps=2.3 q=35.0 size=       1kB time=00:00:00.04 bitrate= 143.6kbits/s speed=0.00103x    frame=   95 fps=2.3 q=35.0 size=       1kB time=00:00:00.10 bitrate=  58.3kbits/s speed=0.00247x    frame=   96 fps=2.1 q=35.0 size=       1kB time=00:00:00.12 bitrate=  48.7kbits/s speed=0.0026x    frame=   97 fps=1.9 q=35.0 size=       1kB time=00:00:00.14 bitrate=  41.8kbits/s speed=0.00282x    frame=   98 fps=1.9 q=43.0 size=       1kB time=00:00:00.16 bitrate=  36.6kbits/s speed=0.00317x    frame=  100 fps=1.9 q=35.0 size=       1kB time=00:00:00.20 bitrate=  29.3kbits/s speed=0.0039x    frame=  101 fps=1.9 q=36.0 size=       1kB time=00:00:00.22 bitrate=  26.6kbits/s speed=0.00424x    frame=  102 fps=1.8 q=37.0 size=       1kB time=00:00:00.24 bitrate=  24.4kbits/s speed=0.00435x    frame=  103 fps=1.8 q=38.0 size=       1kB time=00:00:00.26 bitrate=  22.6kbits/s speed=0.00447x    frame=  106 fps=1.7 q=41.0 size=       1kB time=00:00:00.32 bitrate=  18.3kbits/s speed=0.00513x    frame=  108 fps=1.6 q=42.0 size=       1kB time=00:00:00.36 bitrate=  16.3kbits/s speed=0.00551x    frame=  109 fps=1.6 q=42.0 size=       1kB time=00:00:00.38 bitrate=  15.5kbits/s speed=0.00555x    frame=  114 fps=1.5 q=42.0 size=       1kB time=00:00:00.48 bitrate=  12.2kbits/s speed=0.0065x    frame=  115 fps=1.5 q=42.0 size=       1kB time=00:00:00.50 bitrate=  11.8kbits/s speed=0.00668x    frame=  116 fps=1.5 q=42.0 size=       1kB time=00:00:00.52 bitrate=  11.3kbits/s speed=0.00679x    frame=  120 fps=1.5 q=42.0 size=       1kB time=00:00:00.60 bitrate=   9.8kbits/s speed=0.0074x    frame=  121 fps=1.5 q=42.0 size=       1kB time=00:00:00.62 bitrate=   9.5kbits/s speed=0.00753x    frame=  122 fps=1.4 q=39.0 size=       1kB time=00:00:00.64 bitrate=   9.2kbits/s speed=0.00749x    frame=  126 fps=1.4 q=41.0 size=       1kB time=00:00:00.72 bitrate=   8.2kbits/s speed=0.00814x    frame=  128 fps=1.3 q=41.0 size=       1kB time=00:00:00.76 bitrate=   7.7kbits/s speed=0.00776x    frame=  129 fps=1.3 q=40.0 size=       1kB time=00:00:00.78 bitrate=   7.5kbits/s speed=0.00789x    frame=  130 fps=1.3 q=40.0 size=       1kB time=00:00:00.80 bitrate=   7.4kbits/s speed=0.00803x    frame=  134 fps=1.3 q=38.0 size=       1kB time=00:00:00.88 bitrate=   6.7kbits/s speed=0.00829x    frame=  135 fps=1.2 q=38.0 size=       1kB time=00:00:00.90 bitrate=   6.5kbits/s speed=0.00834x    frame=  137 fps=1.3 q=39.0 size=       1kB time=00:00:00.94 bitrate=   6.3kbits/s speed=0.00862x    frame=  138 fps=1.3 q=39.0 size=       1kB time=00:00:00.96 bitrate=   6.1kbits/s speed=0.00875x    frame=  140 fps=1.1 q=38.0 size=       1kB time=00:00:01.00 bitrate=   5.9kbits/s speed=0.00808x    frame=  141 fps=1.1 q=38.0 size=       1kB time=00:00:01.02 bitrate=   5.8kbits/s speed=0.00819x    frame=  142 fps=1.1 q=38.0 size=       1kB time=00:00:01.04 bitrate=   5.7kbits/s speed=0.00827x    frame=  146 fps=1.1 q=38.0 size=       1kB time=00:00:01.12 bitrate=   5.3kbits/s speed=0.00835x    frame=  147 fps=1.1 q=37.0 size=       1kB time=00:00:01.14 bitrate=   5.2kbits/s speed=0.00837x    frame=  148 fps=1.1 q=37.0 size=       1kB time=00:00:01.16 bitrate=   5.1kbits/s speed=0.00836x    frame=  149 fps=1.1 q=37.0 size=       1kB time=00:00:01.18 bitrate=   5.0kbits/s speed=0.00839x    frame=  150 fps=1.0 q=37.0 size=       1kB time=00:00:01.20 bitrate=   4.9kbits/s speed=0.00793x    frame=  151 fps=1.0 q=37.0 size=       1kB time=00:00:01.22 bitrate=   4.8kbits/s speed=0.008x    frame=  152 fps=1.0 q=37.0 size=       1kB time=00:00:01.24 bitrate=   4.7kbits/s speed=0.00805x    frame=  156 fps=0.9 q=37.0 size=       1kB time=00:00:01.32 bitrate=   4.5kbits/s speed=0.00801x    frame=  157 fps=0.9 q=37.0 size=       1kB time=00:00:01.34 bitrate=   4.4kbits/s speed=0.00801x    frame=  158 fps=0.9 q=37.0 size=       1kB time=00:00:01.36 bitrate=   4.3kbits/s speed=0.00804x    frame=  160 fps=0.9 q=36.0 size=       1kB time=00:00:01.40 bitrate=   4.2kbits/s speed=0.00767x    frame=  161 fps=0.9 q=36.0 size=       1kB time=00:00:01.42 bitrate=   4.1kbits/s speed=0.00772x    frame=  162 fps=0.9 q=36.0 size=       1kB time=00:00:01.44 bitrate=   4.1kbits/s speed=0.00776x    frame=  164 fps=0.9 q=36.0 size=       1kB time=00:00:01.48 bitrate=   4.0kbits/s speed=0.00783x    frame=  166 fps=0.8 q=36.0 size=       1kB time=00:00:01.52 bitrate=   3.9kbits/s speed=0.00762x    frame=  167 fps=0.8 q=36.0 size=       1kB time=00:00:01.54 bitrate=   3.8kbits/s speed=0.00765x    frame=  168 fps=0.8 q=36.0 size=       1kB time=00:00:01.56 bitrate=   3.8kbits/s speed=0.00767x    frame=  170 fps=0.8 q=36.0 size=       1kB time=00:00:01.60 bitrate=   3.7kbits/s speed=0.00727x    frame=  171 fps=0.8 q=36.0 size=       1kB time=00:00:01.62 bitrate=   3.6kbits/s speed=0.00731x    frame=  172 fps=0.8 q=36.0 size=       1kB time=00:00:01.64 bitrate=   3.6kbits/s speed=0.00736x    frame=  175 fps=0.8 q=35.0 size=       1kB time=00:00:01.70 bitrate=   3.5kbits/s speed=0.0076x    frame=  176 fps=0.7 q=36.0 size=       1kB time=00:00:01.72 bitrate=   3.4kbits/s speed=0.00725x    frame=  177 fps=0.7 q=36.0 size=       1kB time=00:00:01.74 bitrate=   3.4kbits/s speed=0.00725x    frame=  178 fps=0.7 q=36.0 size=       1kB time=00:00:01.76 bitrate=   3.3kbits/s speed=0.00731x    frame=  179 fps=0.7 q=36.0 size=       1kB time=00:00:01.78 bitrate=   3.3kbits/s speed=0.00732x    frame=  180 fps=0.7 q=36.0 size=       1kB time=00:00:01.80 bitrate=   3.3kbits/s speed=0.00739x    frame=  181 fps=0.7 q=35.0 size=       1kB time=00:00:01.82 bitrate=   3.2kbits/s speed=0.00698x    frame=  182 fps=0.7 q=35.0 size=       1kB time=00:00:01.84 bitrate=   3.2kbits/s speed=0.00702x    frame=  183 fps=0.7 q=35.0 size=       1kB time=00:00:01.86 bitrate=   3.2kbits/s speed=0.00706x    frame=  187 fps=0.7 q=35.0 size=       1kB time=00:00:01.94 bitrate=   3.0kbits/s speed=0.00696x    frame=  188 fps=0.7 q=35.0 size=       1kB time=00:00:01.96 bitrate=   3.0kbits/s speed=0.00699x    frame=  189 fps=0.7 q=35.0 size=       1kB time=00:00:01.98 bitrate=   3.0kbits/s speed=0.00701x    frame=  190 fps=0.7 q=35.0 size=       1kB time=00:00:02.00 bitrate=   2.9kbits/s speed=0.00702x    frame=  191 fps=0.7 q=35.0 size=       1kB time=00:00:02.02 bitrate=   2.9kbits/s speed=0.00707x    frame=  192 fps=0.6 q=35.0 size=       1kB time=00:00:02.04 bitrate=   2.9kbits/s speed=0.0068x    frame=  193 fps=0.6 q=35.0 size=       1kB time=00:00:02.06 bitrate=   2.9kbits/s speed=0.00683x    frame=  194 fps=0.6 q=35.0 size=       1kB time=00:00:02.08 bitrate=   2.8kbits/s speed=0.00686x    frame=  196 fps=0.6 q=35.0 size=       1kB time=00:00:02.12 bitrate=   2.8kbits/s speed=0.00698x    frame=  197 fps=0.6 q=35.0 size=       1kB time=00:00:02.14 bitrate=   2.8kbits/s speed=0.00703x    frame=  198 fps=0.6 q=35.0 size=       1kB time=00:00:02.16 bitrate=   2.7kbits/s speed=0.00679x    frame=  199 fps=0.6 q=35.0 size=       1kB time=00:00:02.18 bitrate=   2.7kbits/s speed=0.00676x    frame=  200 fps=0.6 q=35.0 size=       1kB time=00:00:02.20 bitrate=   2.7kbits/s speed=0.00675x    frame=  203 fps=0.6 q=35.0 size=       1kB time=00:00:02.26 bitrate=   2.6kbits/s speed=0.00666x    frame=  204 fps=0.6 q=35.0 size=       1kB time=00:00:02.28 bitrate=   2.6kbits/s speed=0.00668x    frame=  205 fps=0.6 q=35.0 size=       1kB time=00:00:02.30 bitrate=   2.6kbits/s speed=0.00671x    frame=  206 fps=0.6 q=35.0 size=       1kB time=00:00:02.32 bitrate=   2.5kbits/s speed=0.00669x    frame=  209 fps=0.6 q=35.0 size=       1kB time=00:00:02.38 bitrate=   2.5kbits/s speed=0.00665x    frame=  210 fps=0.6 q=35.0 size=       1kB time=00:00:02.40 bitrate=   2.5kbits/s speed=0.00647x    frame=  211 fps=0.6 q=35.0 size=       1kB time=00:00:02.42 bitrate=   2.4kbits/s speed=0.00649x    frame=  212 fps=0.6 q=35.0 size=       1kB time=00:00:02.44 bitrate=   2.4kbits/s speed=0.00652x    frame=  215 fps=0.6 q=35.0 size=       1kB time=00:00:02.50 bitrate=   2.4kbits/s speed=0.00666x    frame=  216 fps=0.6 q=35.0 size=       1kB time=00:00:02.52 bitrate=   2.3kbits/s speed=0.00646x    frame=  217 fps=0.6 q=35.0 size=       1kB time=00:00:02.54 bitrate=   2.3kbits/s speed=0.00645x    frame=  220 fps=0.6 q=35.0 size=       1kB time=00:00:02.60 bitrate=   2.3kbits/s speed=0.00657x    frame=  221 fps=0.5 q=35.0 size=       1kB time=00:00:02.62 bitrate=   2.2kbits/s speed=0.00634x    frame=  222 fps=0.5 q=35.0 size=       1kB time=00:00:02.64 bitrate=   2.2kbits/s speed=0.00636x    frame=  223 fps=0.5 q=35.0 size=       1kB time=00:00:02.66 bitrate=   2.2kbits/s speed=0.00639x    frame=  227 fps=0.5 q=35.0 size=       1kB time=00:00:02.74 bitrate=   2.1kbits/s speed=0.00632x    frame=  228 fps=0.5 q=35.0 size=       1kB time=00:00:02.76 bitrate=   2.1kbits/s speed=0.00634x    frame=  229 fps=0.5 q=35.0 size=       1kB time=00:00:02.78 bitrate=   2.1kbits/s speed=0.00636x    frame=  231 fps=0.5 q=35.0 size=       1kB time=00:00:02.82 bitrate=   2.1kbits/s speed=0.00637x    frame=  232 fps=0.5 q=35.0 size=       1kB time=00:00:02.84 bitrate=   2.1kbits/s speed=0.00629x    frame=  233 fps=0.5 q=35.0 size=       1kB time=00:00:02.86 bitrate=   2.1kbits/s speed=0.00625x    frame=  234 fps=0.5 q=34.0 size=       1kB time=00:00:02.88 bitrate=   2.0kbits/s speed=0.00627x    frame=  237 fps=0.5 q=35.0 size=       1kB time=00:00:02.94 bitrate=   2.0kbits/s speed=0.00637x    frame=  238 fps=0.5 q=34.0 size=       1kB time=00:00:02.96 bitrate=   2.0kbits/s speed=0.00629x    frame=  239 fps=0.5 q=34.0 size=       1kB time=00:00:02.98 bitrate=   2.0kbits/s speed=0.00625x    frame=  240 fps=0.5 q=34.0 size=       1kB time=00:00:03.00 bitrate=   2.0kbits/s speed=0.00614x    frame=  241 fps=0.5 q=34.0 size=       1kB time=00:00:03.02 bitrate=   1.9kbits/s speed=0.00616x    frame=  242 fps=0.5 q=34.0 size=       1kB time=00:00:03.04 bitrate=   1.9kbits/s speed=0.00618x    frame=  245 fps=0.5 q=34.0 size=       1kB time=00:00:03.10 bitrate=   1.9kbits/s speed=0.00629x    frame=  246 fps=0.5 q=34.0 size=       1kB time=00:00:03.12 bitrate=   1.9kbits/s speed=0.00615x    frame=  247 fps=0.5 q=34.0 size=       1kB time=00:00:03.14 bitrate=   1.9kbits/s speed=0.00616x    frame=  248 fps=0.5 q=34.0 size=       1kB time=00:00:03.16 bitrate=   1.9kbits/s speed=0.00616x    frame=  249 fps=0.5 q=34.0 size=       1kB time=00:00:03.18 bitrate=   1.9kbits/s speed=0.00618x    frame=  251 fps=0.5 q=34.0 size=       1kB time=00:00:03.22 bitrate=   1.8kbits/s speed=0.00609x    frame=  252 fps=0.5 q=34.0 size=       1kB time=00:00:03.24 bitrate=   1.8kbits/s speed=0.0061x    frame=  253 fps=0.5 q=34.0 size=       1kB time=00:00:03.26 bitrate=   1.8kbits/s speed=0.00611x    frame=  254 fps=0.5 q=34.0 size=       1kB time=00:00:03.28 bitrate=   1.8kbits/s speed=0.00613x    frame=  256 fps=0.5 q=34.0 size=       1kB time=00:00:03.32 bitrate=   1.8kbits/s speed=0.00619x    frame=  257 fps=0.5 q=34.0 size=       1kB time=00:00:03.34 bitrate=   1.8kbits/s speed=0.00613x    frame=  258 fps=0.5 q=34.0 size=       1kB time=00:00:03.36 bitrate=   1.8kbits/s speed=0.0061x    frame=  259 fps=0.5 q=34.0 size=       1kB time=00:00:03.38 bitrate=   1.7kbits/s speed=0.00602x    frame=  260 fps=0.5 q=34.0 size=       1kB time=00:00:03.40 bitrate=   1.7kbits/s speed=0.00604x    frame=  261 fps=0.5 q=34.0 size=       1kB time=00:00:03.42 bitrate=   1.7kbits/s speed=0.00606x    frame=  263 fps=0.5 q=34.0 size=       1kB time=00:00:03.46 bitrate=   1.7kbits/s speed=0.00613x    frame=  264 fps=0.5 q=34.0 size=       1kB time=00:00:03.48 bitrate=   1.7kbits/s speed=0.00613x    frame=  265 fps=0.5 q=34.0 size=       1kB time=00:00:03.50 bitrate=   1.7kbits/s speed=0.00599x    frame=  266 fps=0.5 q=34.0 size=       1kB time=00:00:03.52 bitrate=   1.7kbits/s speed=0.00601x    frame=  267 fps=0.5 q=34.0 size=       1kB time=00:00:03.54 bitrate=   1.7kbits/s speed=0.00603x    frame=  268 fps=0.5 q=34.0 size=       1kB time=00:00:03.56 bitrate=   1.7kbits/s speed=0.00606x    frame=  270 fps=0.4 q=34.0 size=       1kB time=00:00:03.60 bitrate=   1.6kbits/s speed=0.00595x    frame=  271 fps=0.4 q=34.0 size=       1kB time=00:00:03.62 bitrate=   1.6kbits/s speed=0.00597x    frame=  272 fps=0.4 q=34.0 size=       1kB time=00:00:03.64 bitrate=   1.6kbits/s speed=0.00598x    frame=  276 fps=0.4 q=34.0 size=       1kB time=00:00:03.72 bitrate=   1.6kbits/s speed=0.00592x    frame=  277 fps=0.4 q=34.0 size=       1kB time=00:00:03.74 bitrate=   1.6kbits/s speed=0.00594x    frame=  278 fps=0.4 q=34.0 size=       1kB time=00:00:03.76 bitrate=   1.6kbits/s speed=0.00596x    frame=  279 fps=0.4 q=34.0 size=       1kB time=00:00:03.78 bitrate=   1.6kbits/s speed=0.00598x    frame=  282 fps=0.4 q=34.0 size=       1kB time=00:00:03.84 bitrate=   1.5kbits/s speed=0.00592x    frame=  284 fps=0.4 q=34.0 size=       1kB time=00:00:03.88 bitrate=   1.5kbits/s speed=0.00588x    frame=  285 fps=0.4 q=34.0 size=       1kB time=00:00:03.90 bitrate=   1.5kbits/s speed=0.00589x    frame=  286 fps=0.4 q=34.0 size=       1kB time=00:00:03.92 bitrate=   1.5kbits/s speed=0.00591x    frame=  288 fps=0.4 q=34.0 size=       1kB time=00:00:03.96 bitrate=   1.5kbits/s speed=0.00595x    frame=  289 fps=0.4 q=34.0 size=       1kB time=00:00:03.98 bitrate=   1.5kbits/s speed=0.00597x    frame=  290 fps=0.4 q=34.0 size=       1kB time=00:00:04.00 bitrate=   1.5kbits/s speed=0.00586x    frame=  291 fps=0.4 q=34.0 size=       1kB time=00:00:04.02 bitrate=   1.5kbits/s speed=0.00587x    frame=  293 fps=0.4 q=34.0 size=       1kB time=00:00:04.06 bitrate=   1.4kbits/s speed=0.00592x    frame=  294 fps=0.4 q=34.0 size=       1kB time=00:00:04.08 bitrate=   1.4kbits/s speed=0.00594x    frame=  295 fps=0.4 q=34.0 size=       1kB time=00:00:04.10 bitrate=   1.4kbits/s speed=0.00595x    frame=  296 fps=0.4 q=34.0 size=       1kB time=00:00:04.12 bitrate=   1.4kbits/s speed=0.00587x    frame=  297 fps=0.4 q=34.0 size=       1kB time=00:00:04.14 bitrate=   1.4kbits/s speed=0.0058x    frame=  298 fps=0.4 q=34.0 size=       1kB time=00:00:04.16 bitrate=   1.4kbits/s speed=0.00581x    frame=  299 fps=0.4 q=34.0 size=       1kB time=00:00:04.18 bitrate=   1.4kbits/s speed=0.00583x    frame=  302 fps=0.4 q=34.0 size=       1kB time=00:00:04.24 bitrate=   1.4kbits/s speed=0.00588x    frame=  303 fps=0.4 q=34.0 size=       1kB time=00:00:04.26 bitrate=   1.4kbits/s speed=0.0058x    frame=  304 fps=0.4 q=34.0 size=       1kB time=00:00:04.28 bitrate=   1.4kbits/s speed=0.00581x    frame=  305 fps=0.4 q=34.0 size=       1kB time=00:00:04.30 bitrate=   1.4kbits/s speed=0.00583x    frame=  306 fps=0.4 q=34.0 size=       1kB time=00:00:04.32 bitrate=   1.4kbits/s speed=0.00585x    frame=  307 fps=0.4 q=34.0 size=       1kB time=00:00:04.34 bitrate=   1.4kbits/s speed=0.00575x    frame=  308 fps=0.4 q=34.0 size=       1kB time=00:00:04.36 bitrate=   1.4kbits/s speed=0.00577x    frame=  309 fps=0.4 q=34.0 size=       1kB time=00:00:04.38 bitrate=   1.3kbits/s speed=0.00579x    frame=  311 fps=0.4 q=34.0 size=       1kB time=00:00:04.42 bitrate=   1.3kbits/s speed=0.00582x    frame=  312 fps=0.4 q=34.0 size=       1kB time=00:00:04.44 bitrate=   1.3kbits/s speed=0.00584x    frame=  313 fps=0.4 q=34.0 size=       1kB time=00:00:04.46 bitrate=   1.3kbits/s speed=0.00575x    frame=  315 fps=0.4 q=34.0 size=       1kB time=00:00:04.50 bitrate=   1.3kbits/s speed=0.0058x    frame=  316 fps=0.4 q=34.0 size=       1kB time=00:00:04.52 bitrate=   1.3kbits/s speed=0.0058x    frame=  318 fps=0.4 q=34.0 size=       1kB time=00:00:04.56 bitrate=   1.3kbits/s speed=0.00585x    frame=  319 fps=0.4 q=34.0 size=       1kB time=00:00:04.58 bitrate=   1.3kbits/s speed=0.00569x    frame=  320 fps=0.4 q=34.0 size=       1kB time=00:00:04.60 bitrate=   1.3kbits/s speed=0.0057x    frame=  321 fps=0.4 q=34.0 size=       1kB time=00:00:04.62 bitrate=   1.3kbits/s speed=0.00572x    frame=  325 fps=0.4 q=34.0 size=       1kB time=00:00:04.70 bitrate=   1.3kbits/s speed=0.0057x    frame=  326 fps=0.4 q=34.0 size=       1kB time=00:00:04.72 bitrate=   1.2kbits/s speed=0.00572x    frame=  327 fps=0.4 q=34.0 size=       1kB time=00:00:04.74 bitrate=   1.2kbits/s speed=0.00572x    frame=  328 fps=0.4 q=34.0 size=       1kB time=00:00:04.76 bitrate=   1.2kbits/s speed=0.00573x    frame=  329 fps=0.4 q=34.0 size=       1kB time=00:00:04.78 bitrate=   1.2kbits/s speed=0.00568x    frame=  330 fps=0.4 q=34.0 size=       1kB time=00:00:04.80 bitrate=   1.2kbits/s speed=0.00569x    frame=  331 fps=0.4 q=34.0 size=       1kB time=00:00:04.82 bitrate=   1.2kbits/s speed=0.00569x    frame=  333 fps=0.4 q=35.0 size=       1kB time=00:00:04.86 bitrate=   1.2kbits/s speed=0.00573x    frame=  334 fps=0.4 q=35.0 size=       1kB time=00:00:04.88 bitrate=   1.2kbits/s speed=0.00574x    frame=  335 fps=0.4 q=35.0 size=       1kB time=00:00:04.90 bitrate=   1.2kbits/s speed=0.00571x    frame=  336 fps=0.4 q=35.0 size=       1kB time=00:00:04.92 bitrate=   1.2kbits/s speed=0.00572x    frame=  337 fps=0.4 q=35.0 size=    5020kB time=00:00:04.94 bitrate=8322.8kbits/s speed=0.00573x    frame=  341 fps=0.4 q=35.0 size=    5020kB time=00:00:05.02 bitrate=8190.2kbits/s speed=0.0058x    frame=  342 fps=0.4 q=35.0 size=    5020kB time=00:00:05.04 bitrate=8157.7kbits/s speed=0.0058x    frame=  343 fps=0.4 q=36.0 size=    5020kB time=00:00:05.06 bitrate=8125.5kbits/s speed=0.0058x    frame=  347 fps=0.4 q=35.0 size=    5020kB time=00:00:05.14 bitrate=7999.1kbits/s speed=0.00588x    frame=  348 fps=0.4 q=35.0 size=    5020kB time=00:00:05.16 bitrate=7968.1kbits/s speed=0.00589x    frame=  349 fps=0.4 q=35.0 size=    5020kB time=00:00:05.18 bitrate=7937.3kbits/s speed=0.00587x    frame=  350 fps=0.4 q=35.0 size=    5020kB time=00:00:05.20 bitrate=7906.8kbits/s speed=0.00589x    frame=  351 fps=0.4 q=36.0 size=    5020kB time=00:00:05.22 bitrate=7876.5kbits/s speed=0.0059x    frame=  354 fps=0.4 q=36.0 size=    5020kB time=00:00:05.28 bitrate=7787.0kbits/s speed=0.00596x    frame=  355 fps=0.4 q=36.0 size=    5020kB time=00:00:05.30 bitrate=7757.6kbits/s speed=0.00592x    frame=  356 fps=0.4 q=36.0 size=    5020kB time=00:00:05.32 bitrate=7728.5kbits/s speed=0.00594x    frame=  357 fps=0.4 q=36.0 size=    5020kB time=00:00:05.34 bitrate=7699.5kbits/s speed=0.00595x    frame=  358 fps=0.4 q=36.0 size=    5020kB time=00:00:05.36 bitrate=7670.8kbits/s speed=0.00597x    frame=  359 fps=0.4 q=36.0 size=    5020kB time=00:00:05.38 bitrate=7642.3kbits/s speed=0.00596x    frame=  360 fps=0.4 q=36.0 size=    5020kB time=00:00:05.40 bitrate=7614.0kbits/s speed=0.00597x    frame=  361 fps=0.4 q=36.0 size=    5020kB time=00:00:05.42 bitrate=7585.9kbits/s speed=0.00597x    frame=  363 fps=0.4 q=36.0 size=    5020kB time=00:00:05.46 bitrate=7530.3kbits/s speed=0.00601x    frame=  364 fps=0.4 q=36.0 size=    5020kB time=00:00:05.48 bitrate=7502.9kbits/s speed=0.00602x    frame=  365 fps=0.4 q=36.0 size=    5020kB time=00:00:05.50 bitrate=7475.6kbits/s speed=0.00601x    frame=  367 fps=0.4 q=36.0 size=    5020kB time=00:00:05.54 bitrate=7421.6kbits/s speed=0.00602x    frame=  369 fps=0.4 q=36.0 size=    5020kB time=00:00:05.58 bitrate=7368.4kbits/s speed=0.00605x    frame=  370 fps=0.4 q=36.0 size=    5020kB time=00:00:05.60 bitrate=7342.1kbits/s speed=0.00606x    frame=  371 fps=0.4 q=36.0 size=    5020kB time=00:00:05.62 bitrate=7316.0kbits/s speed=0.00604x    frame=  372 fps=0.4 q=36.0 size=    5020kB time=00:00:05.64 bitrate=7290.0kbits/s speed=0.00606x    frame=  373 fps=0.4 q=36.0 size=    5020kB time=00:00:05.66 bitrate=7264.3kbits/s speed=0.00607x    frame=  374 fps=0.4 q=36.0 size=    5020kB time=00:00:05.68 bitrate=7238.7kbits/s speed=0.00604x    frame=  375 fps=0.4 q=36.0 size=    5020kB time=00:00:05.70 bitrate=7213.3kbits/s speed=0.00605x    frame=  376 fps=0.4 q=36.0 size=    5020kB time=00:00:05.72 bitrate=7188.1kbits/s speed=0.00607x    frame=  379 fps=0.4 q=35.0 size=    5020kB time=00:00:05.78 bitrate=7113.5kbits/s speed=0.00612x    frame=  380 fps=0.4 q=35.0 size=    5020kB time=00:00:05.80 bitrate=7089.0kbits/s speed=0.00608x    frame=  381 fps=0.4 q=35.0 size=    5020kB time=00:00:05.82 bitrate=7064.6kbits/s speed=0.00609x    frame=  382 fps=0.4 q=35.0 size=    5020kB time=00:00:05.84 bitrate=7040.4kbits/s speed=0.0061x    frame=  385 fps=0.4 q=35.0 size=    5020kB time=00:00:05.90 bitrate=6968.8kbits/s speed=0.00616x    frame=  386 fps=0.4 q=35.0 size=    5020kB time=00:00:05.92 bitrate=6945.3kbits/s speed=0.0061x    frame=  387 fps=0.4 q=35.0 size=    5020kB time=00:00:05.94 bitrate=6921.9kbits/s speed=0.00611x    frame=  389 fps=0.4 q=35.0 size=    5020kB time=00:00:05.98 bitrate=6875.6kbits/s speed=0.0061x    frame=  390 fps=0.4 q=35.0 size=    5020kB time=00:00:06.00 bitrate=6852.7kbits/s speed=0.00612x    frame=  391 fps=0.4 q=35.0 size=    5020kB time=00:00:06.02 bitrate=6830.0kbits/s speed=0.00613x    frame=  392 fps=0.4 q=35.0 size=    5020kB time=00:00:06.04 bitrate=6807.3kbits/s speed=0.00614x    frame=  393 fps=0.4 q=35.0 size=    5020kB time=00:00:06.06 bitrate=6784.9kbits/s speed=0.00614x    frame=  395 fps=0.4 q=35.0 size=    5020kB time=00:00:06.10 bitrate=6740.4kbits/s speed=0.0061x    frame=  397 fps=0.4 q=35.0 size=    5020kB time=00:00:06.14 bitrate=6696.5kbits/s speed=0.00613x    frame=  398 fps=0.4 q=35.0 size=    5020kB time=00:00:06.16 bitrate=6674.8kbits/s speed=0.00614x    frame=  399 fps=0.4 q=35.0 size=    5020kB time=00:00:06.18 bitrate=6653.2kbits/s speed=0.00615x    frame=  400 fps=0.4 q=35.0 size=    5020kB time=00:00:06.20 bitrate=6631.7kbits/s speed=0.00616x    frame=  401 fps=0.4 q=35.0 size=    5020kB time=00:00:06.22 bitrate=6610.4kbits/s speed=0.00613x    frame=  402 fps=0.4 q=35.0 size=    5020kB time=00:00:06.24 bitrate=6589.2kbits/s speed=0.00614x    frame=  403 fps=0.4 q=35.0 size=    5020kB time=00:00:06.26 bitrate=6568.1kbits/s speed=0.0061x    frame=  404 fps=0.4 q=35.0 size=    5020kB time=00:00:06.28 bitrate=6547.2kbits/s speed=0.00612x    frame=  405 fps=0.4 q=35.0 size=    5020kB time=00:00:06.30 bitrate=6526.4kbits/s speed=0.00612x    frame=  408 fps=0.4 q=35.0 size=    5020kB time=00:00:06.36 bitrate=6464.9kbits/s speed=0.00617x    frame=  409 fps=0.4 q=35.0 size=    5020kB time=00:00:06.38 bitrate=6444.6kbits/s speed=0.00609x    frame=  413 fps=0.4 q=35.0 size=    5020kB time=00:00:06.46 bitrate=6364.8kbits/s speed=0.00616x    frame=  414 fps=0.4 q=35.0 size=    5020kB time=00:00:06.48 bitrate=6345.2kbits/s speed=0.00617x    frame=  415 fps=0.4 q=35.0 size=    5020kB time=00:00:06.50 bitrate=6325.7kbits/s speed=0.0061x    frame=  416 fps=0.4 q=35.0 size=    5020kB time=00:00:06.52 bitrate=6306.3kbits/s speed=0.00607x    frame=  417 fps=0.4 q=35.0 size=    5020kB time=00:00:06.54 bitrate=6287.0kbits/s speed=0.00608x    frame=  418 fps=0.4 q=35.0 size=    5020kB time=00:00:06.56 bitrate=6267.8kbits/s speed=0.00609x    frame=  421 fps=0.4 q=35.0 size=    5020kB time=00:00:06.62 bitrate=6211.0kbits/s speed=0.00611x    frame=  422 fps=0.4 q=35.0 size=    5020kB time=00:00:06.64 bitrate=6192.3kbits/s speed=0.00607x    frame=  423 fps=0.4 q=35.0 size=    5020kB time=00:00:06.66 bitrate=6173.7kbits/s speed=0.00608x    frame=  424 fps=0.4 q=35.0 size=    5020kB time=00:00:06.68 bitrate=6155.2kbits/s speed=0.00609x    frame=  426 fps=0.4 q=35.0 size=    5020kB time=00:00:06.72 bitrate=6118.6kbits/s speed=0.00609x    frame=  427 fps=0.4 q=35.0 size=    5020kB time=00:00:06.74 bitrate=6100.5kbits/s speed=0.00603x    frame=  428 fps=0.4 q=35.0 size=    5020kB time=00:00:06.76 bitrate=6082.4kbits/s speed=0.00604x    frame=  429 fps=0.4 q=35.0 size=    5020kB time=00:00:06.78 bitrate=6064.5kbits/s speed=0.00605x    frame=  432 fps=0.4 q=35.0 size=    5020kB time=00:00:06.84 bitrate=6011.3kbits/s speed=0.0061x    frame=  433 fps=0.4 q=35.0 size=    5020kB time=00:00:06.86 bitrate=5993.8kbits/s speed=0.00604x    frame=  434 fps=0.4 q=35.0 size=    5020kB time=00:00:06.88 bitrate=5976.3kbits/s speed=0.00604x    frame=  435 fps=0.4 q=35.0 size=    5020kB time=00:00:06.90 bitrate=5959.0kbits/s speed=0.00605x    frame=  437 fps=0.4 q=35.0 size=    5020kB time=00:00:06.94 bitrate=5924.7kbits/s speed=0.00608x    frame=  438 fps=0.4 q=35.0 size=    5020kB time=00:00:06.96 bitrate=5907.6kbits/s speed=0.006x    frame=  439 fps=0.4 q=35.0 size=    5020kB time=00:00:06.98 bitrate=5890.7kbits/s speed=0.00601x    frame=  440 fps=0.4 q=35.0 size=    5020kB time=00:00:07.00 bitrate=5873.9kbits/s speed=0.00602x    frame=  444 fps=0.4 q=35.0 size=    5020kB time=00:00:07.08 bitrate=5807.5kbits/s speed=0.00601x    frame=  446 fps=0.4 q=35.0 size=    5020kB time=00:00:07.12 bitrate=5774.9kbits/s speed=0.00602x    frame=  448 fps=0.4 q=35.0 size=    5020kB time=00:00:07.16 bitrate=5742.7kbits/s speed=0.00598x    frame=  449 fps=0.4 q=35.0 size=    5020kB time=00:00:07.18 bitrate=5726.7kbits/s speed=0.00599x    frame=  450 fps=0.4 q=35.0 size=    5020kB time=00:00:07.20 bitrate=5710.8kbits/s speed=0.006x    frame=  453 fps=0.4 q=35.0 size=    5020kB time=00:00:07.26 bitrate=5663.6kbits/s speed=0.00604x    frame=  454 fps=0.4 q=35.0 size=    5020kB time=00:00:07.28 bitrate=5648.0kbits/s speed=0.00598x    frame=  456 fps=0.4 q=35.0 size=    5020kB time=00:00:07.32 bitrate=5617.1kbits/s speed=0.00601x    frame=  457 fps=0.4 q=35.0 size=    5020kB time=00:00:07.34 bitrate=5601.8kbits/s speed=0.00602x    frame=  458 fps=0.4 q=35.0 size=    5020kB time=00:00:07.36 bitrate=5586.6kbits/s speed=0.00595x    frame=  459 fps=0.4 q=35.0 size=    5020kB time=00:00:07.38 bitrate=5571.5kbits/s speed=0.00596x    frame=  460 fps=0.4 q=35.0 size=    5020kB time=00:00:07.40 bitrate=5556.4kbits/s speed=0.00597x    frame=  462 fps=0.4 q=35.0 size=    5020kB time=00:00:07.44 bitrate=5526.6kbits/s speed=0.006x    frame=  463 fps=0.4 q=35.0 size=    5020kB time=00:00:07.46 bitrate=5511.7kbits/s speed=0.00601x    frame=  464 fps=0.4 q=35.0 size=    5020kB time=00:00:07.48 bitrate=5497.0kbits/s speed=0.00595x    frame=  466 fps=0.4 q=35.0 size=    5020kB time=00:00:07.52 bitrate=5467.8kbits/s speed=0.00598x    frame=  468 fps=0.4 q=35.0 size=    5020kB time=00:00:07.56 bitrate=5438.8kbits/s speed=0.00593x    frame=  469 fps=0.4 q=35.0 size=    5020kB time=00:00:07.58 bitrate=5424.5kbits/s speed=0.00594x    frame=  470 fps=0.4 q=35.0 size=    5020kB time=00:00:07.60 bitrate=5410.2kbits/s speed=0.00596x    frame=  474 fps=0.4 q=35.0 size=    5020kB time=00:00:07.68 bitrate=5353.9kbits/s speed=0.00592x    frame=  475 fps=0.4 q=35.0 size=    5020kB time=00:00:07.70 bitrate=5340.0kbits/s speed=0.00593x    frame=  476 fps=0.4 q=35.0 size=    5020kB time=00:00:07.72 bitrate=5326.1kbits/s speed=0.00594x    frame=  478 fps=0.4 q=35.0 size=    5020kB time=00:00:07.76 bitrate=5298.7kbits/s speed=0.00597x    frame=  480 fps=0.4 q=35.0 size=    5020kB time=00:00:07.80 bitrate=5271.5kbits/s speed=0.00589x    frame=  481 fps=0.4 q=35.0 size=    5020kB time=00:00:07.82 bitrate=5258.0kbits/s speed=0.0059x    frame=  482 fps=0.4 q=35.0 size=    5020kB time=00:00:07.84 bitrate=5244.6kbits/s speed=0.00591x    frame=  486 fps=0.4 q=35.0 size=    5020kB time=00:00:07.92 bitrate=5191.7kbits/s speed=0.00588x    frame=  487 fps=0.4 q=35.0 size=    5020kB time=00:00:07.94 bitrate=5178.6kbits/s speed=0.00589x    frame=  492 fps=0.4 q=35.0 size=    5020kB time=00:00:08.04 bitrate=5114.2kbits/s speed=0.0059x    frame=  493 fps=0.4 q=35.0 size=    5020kB time=00:00:08.06 bitrate=5101.5kbits/s speed=0.00589x    frame=  495 fps=0.4 q=35.0 size=    5020kB time=00:00:08.10 bitrate=5076.3kbits/s speed=0.00588x    frame=  496 fps=0.4 q=35.0 size=    5020kB time=00:00:08.12 bitrate=5063.8kbits/s speed=0.00589x    frame=  497 fps=0.4 q=35.0 size=    5020kB time=00:00:08.14 bitrate=5051.4kbits/s speed=0.0059x    frame=  498 fps=0.4 q=35.0 size=    5020kB time=00:00:08.16 bitrate=5039.0kbits/s speed=0.00591x    frame=  499 fps=0.4 q=35.0 size=    5020kB time=00:00:08.18 bitrate=5026.7kbits/s speed=0.0059x    frame=  500 fps=0.4 q=35.0 size=    5020kB time=00:00:08.20 bitrate=5014.4kbits/s speed=0.00586x    frame=  500 fps=0.3 q=-1.0 Lsize=   10895kB time=00:00:09.94 bitrate=8977.8kbits/s speed=0.0058x    
video:10890kB audio:0kB subtitle:0kB other streams:0kB global headers:0kB muxing overhead: 0.040371%
bench: utime=6683.952s
bench: maxrss=6506504kB
[libx264 @ 0x3255120] frame I:3     Avg QP:30.76  size:512547
[libx264 @ 0x3255120] frame P:45    Avg QP:33.95  size: 76013
[libx264 @ 0x3255120] frame B:452   Avg QP:37.14  size: 13701
[libx264 @ 0x3255120] consecutive B-frames:  0.6%  0.0%  0.0%  0.0%  0.0%  0.0%  1.4%  3.2%  7.2% 30.0% 19.8%  9.6%  5.2% 14.0%  9.0%  0.0%  0.0%
[libx264 @ 0x3255120] mb I  I16..4: 19.1% 74.0%  6.9%
[libx264 @ 0x3255120] mb P  I16..4:  0.0%  0.2%  0.0%  P16..4: 42.8% 25.0%  5.2%  0.8%  0.0%    skip:26.0%
[libx264 @ 0x3255120] mb B  I16..4:  0.0%  0.0%  0.0%  B16..8: 40.9%  2.7%  0.0%  direct: 0.1%  skip:56.3%  L0:52.2% L1:47.7% BI: 0.1%
[libx264 @ 0x3255120] final ratefactor: 26.88
[libx264 @ 0x3255120] 8x8 transform intra:74.4% inter:66.1%
[libx264 @ 0x3255120] direct mvs  spatial:98.7% temporal:1.3%
[libx264 @ 0x3255120] coded y,uvDC,uvAC intra: 89.5% 67.8% 48.1% inter: 1.2% 0.9% 0.0%
[libx264 @ 0x3255120] i16 v,h,dc,p: 17% 38% 11% 35%
[libx264 @ 0x3255120] i8 v,h,dc,ddl,ddr,vr,hd,vl,hu:  3%  5%  1% 16% 21% 15% 19%  9% 12%
[libx264 @ 0x3255120] i4 v,h,dc,ddl,ddr,vr,hd,vl,hu:  2%  3%  1% 16% 19% 14% 19% 10% 15%
[libx264 @ 0x3255120] i8c dc,h,v,p: 34% 38% 16% 12%
[libx264 @ 0x3255120] Weighted P-Frames: Y:4.4% UV:2.2%
[libx264 @ 0x3255120] ref P L0: 57.3% 16.5% 11.5%  3.4%  2.7%  2.5%  2.2%  0.6%  0.6%  0.5%  0.4%  0.5%  0.4%  0.4%  0.4%  0.1%
[libx264 @ 0x3255120] ref B L0: 82.4%  5.8%  5.5%  1.2%  1.2%  1.1%  1.1%  0.2%  0.3%  0.3%  0.2%  0.2%  0.2%  0.1%  0.0%
[libx264 @ 0x3255120] ref B L1: 93.2%  6.8%
[libx264 @ 0x3255120] kb/s:8920.71
